<svg width="117" height="117" viewBox="0 0 117 117" fill="none" xmlns="http://www.w3.org/2000/svg">
<circle cx="58.5" cy="58.5" r="58" stroke="white"/>
<path d="M31.304 27.6C31.7733 27.6 32.008 27.8347 32.008 28.304V36.624H46.984V28.304C46.984 27.8347 47.2187 27.6 47.688 27.6H51.144C51.6347 27.6 51.88 27.8347 51.88 28.304V49.296C51.88 49.7653 51.6347 50 51.144 50H47.688C47.2187 50 46.984 49.7653 46.984 49.296V40.784H32.008V49.296C32.008 49.7653 31.7733 50 31.304 50H27.848C27.3573 50 27.112 49.7653 27.112 49.296V28.304C27.112 27.8347 27.3573 27.6 27.848 27.6H31.304ZM74.704 27.6C76.3253 27.6 77.7013 27.76 78.832 28.08C79.984 28.3787 80.912 28.8693 81.616 29.552C82.3413 30.2133 82.864 31.0773 83.184 32.144C83.504 33.2107 83.664 34.512 83.664 36.048V41.552C83.664 43.088 83.504 44.4 83.184 45.488C82.864 46.5547 82.3413 47.4293 81.616 48.112C80.912 48.7733 79.984 49.2533 78.832 49.552C77.7013 49.8507 76.3253 50 74.704 50H64.816C63.1947 50 61.8187 49.8507 60.688 49.552C59.5573 49.2533 58.6293 48.7733 57.904 48.112C57.2 47.4293 56.6773 46.5547 56.336 45.488C56.016 44.4 55.856 43.088 55.856 41.552V36.048C55.856 34.512 56.016 33.2107 56.336 32.144C56.6773 31.0773 57.2 30.2133 57.904 29.552C58.6293 28.8693 59.5573 28.3787 60.688 28.08C61.8187 27.76 63.1947 27.6 64.816 27.6H74.704ZM60.752 41.2C60.752 42.032 60.816 42.736 60.944 43.312C61.0933 43.8667 61.328 44.3147 61.648 44.656C61.968 44.976 62.3947 45.2107 62.928 45.36C63.4827 45.488 64.176 45.552 65.008 45.552H74.512C75.344 45.552 76.0267 45.488 76.56 45.36C77.1147 45.2107 77.552 44.976 77.872 44.656C78.192 44.3147 78.416 43.8667 78.544 43.312C78.6933 42.736 78.768 42.032 78.768 41.2V36.4C78.768 35.568 78.6933 34.8747 78.544 34.32C78.416 33.744 78.192 33.296 77.872 32.976C77.552 32.6347 77.1147 32.4 76.56 32.272C76.0267 32.1227 75.344 32.048 74.512 32.048H65.008C64.176 32.048 63.4827 32.1227 62.928 32.272C62.3947 32.4 61.968 32.6347 61.648 32.976C61.328 33.296 61.0933 33.744 60.944 34.32C60.816 34.8747 60.752 35.568 60.752 36.4V41.2ZM33.448 65.6C33.9173 65.6 34.3227 65.632 34.664 65.696C35.0053 65.76 35.304 65.888 35.56 66.08C35.816 66.2507 36.04 66.496 36.232 66.816C36.4453 67.1147 36.6587 67.52 36.872 68.032L43.528 83.392C43.6133 83.584 43.7627 83.68 43.976 83.68H44.36C44.5733 83.68 44.7227 83.584 44.808 83.392L51.464 68.032C51.6773 67.52 51.88 67.1147 52.072 66.816C52.2853 66.496 52.52 66.2507 52.776 66.08C53.032 65.888 53.32 65.76 53.64 65.696C53.9813 65.632 54.3867 65.6 54.856 65.6H58.28C59.3893 65.6 60.136 65.856 60.52 66.368C60.904 66.8587 61.096 67.712 61.096 68.928V87.296C61.096 87.7653 60.8507 88 60.36 88H57.096C56.6267 88 56.392 87.7653 56.392 87.296V70.592C56.392 70.3787 56.3067 70.272 56.136 70.272H55.848C55.6347 70.272 55.496 70.3573 55.432 70.528L48.968 84.864C48.712 85.44 48.4453 85.9307 48.168 86.336C47.912 86.72 47.624 87.04 47.304 87.296C47.0053 87.552 46.6533 87.7333 46.248 87.84C45.864 87.9467 45.4053 88 44.872 88H43.336C42.8027 88 42.3333 87.9467 41.928 87.84C41.544 87.7333 41.192 87.552 40.872 87.296C40.5733 87.04 40.2853 86.72 40.008 86.336C39.752 85.9307 39.496 85.44 39.24 84.864L32.776 70.528C32.712 70.3573 32.5733 70.272 32.36 70.272H32.072C31.9013 70.272 31.816 70.3787 31.816 70.592V87.296C31.816 87.7653 31.5813 88 31.112 88H27.848C27.3573 88 27.112 87.7653 27.112 87.296V68.928C27.112 67.712 27.304 66.8587 27.688 66.368C28.072 65.856 28.8293 65.6 29.96 65.6H33.448ZM88.1148 65.6C88.6054 65.6 88.8508 65.8347 88.8508 66.304V69.344C88.8508 69.8133 88.6054 70.048 88.1148 70.048H74.1308C73.2988 70.048 72.6054 70.1227 72.0508 70.272C71.5174 70.4 71.0801 70.6347 70.7388 70.976C70.4188 71.296 70.1948 71.744 70.0668 72.32C69.9388 72.8747 69.8748 73.568 69.8748 74.4V74.72H87.9548C88.4241 74.72 88.6588 74.9547 88.6588 75.424V77.952C88.6588 78.4213 88.4241 78.656 87.9548 78.656H69.8748V79.2C69.8748 80.032 69.9388 80.736 70.0668 81.312C70.1948 81.8667 70.4188 82.3147 70.7388 82.656C71.0801 82.976 71.5174 83.2107 72.0508 83.36C72.6054 83.488 73.2988 83.552 74.1308 83.552H88.1148C88.6054 83.552 88.8508 83.7867 88.8508 84.256V87.296C88.8508 87.7653 88.6054 88 88.1148 88H74.0348C72.4134 88 71.0374 87.8507 69.9068 87.552C68.7761 87.2533 67.8481 86.7733 67.1228 86.112C66.4188 85.4293 65.8961 84.5547 65.5548 83.488C65.2348 82.4 65.0748 81.088 65.0748 79.552V74.048C65.0748 72.512 65.2348 71.2107 65.5548 70.144C65.8961 69.0773 66.4188 68.2133 67.1228 67.552C67.8481 66.8693 68.7761 66.3787 69.9068 66.08C71.0374 65.76 72.4134 65.6 74.0348 65.6H88.1148Z" fill="white"/>
</svg>
