<svg width="1440" height="2003" viewBox="0 0 1440 2003" fill="none" xmlns="http://www.w3.org/2000/svg">
<g filter="url(#filter0_f_23_10)">
<line x1="109.5" y1="2003" x2="109.5" y2="-2.18556e-08" stroke="#343434"/>
</g>
<g filter="url(#filter1_f_23_10)">
<line x1="1329.5" y1="2003" x2="1329.5" y2="-2.18556e-08" stroke="#343434"/>
</g>
<line y1="511.5" x2="1440" y2="511.5" stroke="#343434"/>
<line y1="939.5" x2="1440" y2="939.5" stroke="#343434"/>
<line y1="1790.5" x2="1440" y2="1790.5" stroke="#343434"/>
<line x1="207.5" y1="512" x2="207.5" y2="2003" stroke="#343434"/>
<line x1="1233.5" y1="512" x2="1233.5" y2="2003" stroke="#343434"/>
<rect x="207" y="480" width="1" height="1" fill="#D9D9D9"/>
<rect x="207" y="448" width="1" height="1" fill="#D9D9D9"/>
<rect x="207" y="416" width="1" height="1" fill="#D9D9D9"/>
<rect x="207" y="384" width="1" height="1" fill="#D9D9D9"/>
<rect width="1" height="1" transform="matrix(1 0 0 -1 207 353)" fill="#D9D9D9"/>
<rect x="1233" y="480" width="1" height="1" fill="#D9D9D9"/>
<rect x="1233" y="448" width="1" height="1" fill="#D9D9D9"/>
<rect x="1233" y="416" width="1" height="1" fill="#D9D9D9"/>
<rect x="1233" y="384" width="1" height="1" fill="#D9D9D9"/>
<rect width="1" height="1" transform="matrix(1 0 0 -1 1233 353)" fill="#D9D9D9"/>
<defs>
<filter id="filter0_f_23_10" x="105" y="-4" width="9.00009" height="2011" filterUnits="userSpaceOnUse" color-interpolation-filters="sRGB">
<feFlood flood-opacity="0" result="BackgroundImageFix"/>
<feBlend mode="normal" in="SourceGraphic" in2="BackgroundImageFix" result="shape"/>
<feGaussianBlur stdDeviation="2" result="effect1_foregroundBlur_23_10"/>
</filter>
<filter id="filter1_f_23_10" x="1325" y="-4" width="9.00006" height="2011" filterUnits="userSpaceOnUse" color-interpolation-filters="sRGB">
<feFlood flood-opacity="0" result="BackgroundImageFix"/>
<feBlend mode="normal" in="SourceGraphic" in2="BackgroundImageFix" result="shape"/>
<feGaussianBlur stdDeviation="2" result="effect1_foregroundBlur_23_10"/>
</filter>
</defs>
</svg>
